  0
SECTION
  2
HEADER
  9
$ACADVER
  1
AC1014
  9
$HANDSEED
  5
FFFF
  9
$MEASUREMENT
 70
     1
  0
ENDSEC
  0
SECTION
  2
TABLES
  0
TABLE
  2
VPORT
  5
8
330
0
100
AcDbSymbolTable
 70
     4
  0
VPORT
  5
2E
330
8
100
AcDbSymbolTableRecord
100
AcDbViewportTableRecord
  2
*ACTIVE
 70
     0
 10
0.0
 20
0.0
 11
1.0
 21
1.0
 12
210.0
 22
148.5
 13
0.0
 23
0.0
 14
10.0
 24
10.0
 15
10.0
 25
10.0
 16
0.0
 26
0.0
 36
1.0
 17
0.0
 27
0.0
 37
0.0
 40
341.0
 41
1.24
 42
50.0
 43
0.0
 44
0.0
 50
0.0
 51
0.0
 71
     0
 72
   100
 73
     1
 74
     3
 75
     0
 76
     0
 77
     0
 78
     0
  0
ENDTAB
  0
TABLE
  2
LTYPE
  5
5
330
0
100
AcDbSymbolTable
 70
     1
  0
LTYPE
  5
14
330
5
100
AcDbSymbolTableRecord
100
AcDbLinetypeTableRecord
  2
BYBLOCK
 70
     0
  3

 72
    65
 73
     0
 40
0.0
  0
LTYPE
  5
15
330
5
100
AcDbSymbolTableRecord
100
AcDbLinetypeTableRecord
  2
BYLAYER
 70
     0
  3

 72
    65
 73
     0
 40
0.0
  0
LTYPE
  5
16
330
5
100
AcDbSymbolTableRecord
100
AcDbLinetypeTableRecord
  2
CONTINUOUS
 70
     0
  3
Solid line
 72
    65
 73
     0
 40
0.0
  0
ENDTAB
  0
TABLE
  2
LAYER
  5
2
100
AcDbSymbolTable
 70
4
  0
LAYER
  5
50
100
AcDbSymbolTableRecord
100
AcDbLayerTableRecord
  2
0
 70
0
  6
CONTINUOUS
  0
LAYER
  5
51
100
AcDbSymbolTableRecord
100
AcDbLayerTableRecord
  2
heart
 70
0
  6
CONTINUOUS
  0
LAYER
  5
52
100
AcDbSymbolTableRecord
100
AcDbLayerTableRecord
  2
cat
 70
0
  6
CONTINUOUS
  0
LAYER
  5
53
100
AcDbSymbolTableRecord
100
AcDbLayerTableRecord
  2
star
 70
0
  6
CONTINUOUS
  0
ENDTAB
  0
TABLE
  2
STYLE
  5
3
330
0
100
AcDbSymbolTable
 70
     1
  0
STYLE
  5
11
330
3
100
AcDbSymbolTableRecord
100
AcDbTextStyleTableRecord
  2
STANDARD
 70
     0
 40
0.0
 41
1.0
 50
0.0
 71
     0
 42
2.5
  3
txt
  4

  0
ENDTAB
  0
TABLE
  2
VIEW
  5
6
330
0
100
AcDbSymbolTable
 70
     0
  0
ENDTAB
  0
TABLE
  2
UCS
  5
7
330
0
100
AcDbSymbolTable
 70
     0
  0
ENDTAB
  0
TABLE
  2
APPID
  5
9
330
0
100
AcDbSymbolTable
 70
     2
  0
APPID
  5
12
330
9
100
AcDbSymbolTableRecord
100
AcDbRegAppTableRecord
  2
ACAD
 70
     0
  0
ENDTAB
  0
TABLE
  2
DIMSTYLE
  5
A
330
0
100
AcDbSymbolTable
 70
     1
  0
DIMSTYLE
105
27
330
A
100
AcDbSymbolTableRecord
100
AcDbDimStyleTableRecord
  2
ISO-25
 70
     0
  3

  4

  5

  6

  7

 40
1.0
 41
2.5
 42
0.625
 43
3.75
 44
1.25
 45
0.0
 46
0.0
 47
0.0
 48
0.0
140
2.5
141
2.5
142
0.0
143
0.03937007874016
144
1.0
145
0.0
146
1.0
147
0.625
 71
     0
 72
     0
 73
     0
 74
     0
 75
     0
 76
     0
 77
     1
 78
     8
170
     0
171
     3
172
     1
173
     0
174
     0
175
     0
176
     0
177
     0
178
     0
270
     2
271
     2
272
     2
273
     2
274
     3
340
11
275
     0
280
     0
281
     0
282
     0
283
     0
284
     8
285
     0
286
     0
287
     3
288
     0
  0
ENDTAB
  0
TABLE
  2
BLOCK_RECORD
  5
1
330
0
100
AcDbSymbolTable
 70
     1
  0
BLOCK_RECORD
  5
1F
330
1
100
AcDbSymbolTableRecord
100
AcDbBlockTableRecord
  2
*MODEL_SPACE
  0
BLOCK_RECORD
  5
1B
330
1
100
AcDbSymbolTableRecord
100
AcDbBlockTableRecord
  2
*PAPER_SPACE
  0
ENDTAB
  0
ENDSEC
  0
SECTION
  2
BLOCKS
  0
BLOCK
  5
20
330
1F
100
AcDbEntity
  8
0
100
AcDbBlockBegin
  2
*MODEL_SPACE
 70
     0
 10
0.0
 20
0.0
 30
0.0
  3
*MODEL_SPACE
  1

  0
ENDBLK
  5
21
330
1F
100
AcDbEntity
  8
0
100
AcDbBlockEnd
  0
BLOCK
  5
1C
330
1B
100
AcDbEntity
 67
     1
  8
0
100
AcDbBlockBegin
  2
*PAPER_SPACE
  1

  0
ENDBLK
  5
1D
330
1B
100
AcDbEntity
 67
     1
  8
0
100
AcDbBlockEnd
  0
ENDSEC
  0
SECTION
  2
ENTITIES
  0
LWPOLYLINE
  5
100
100
AcDbEntity
  8
heart
 62
7
100
AcDbPolyline
 90
53
 70
0
 10
149.348472
 20
115.575190
 30
0.0
 10
145.173265
 20
128.820297
 30
0.0
 10
138.077222
 20
138.214704
 30
0.0
 10
131.295069
 20
143.912065
 30
0.0
 10
129.786944
 20
144.785190
 30
0.0
 10
121.329097
 20
148.365885
 30
0.0
 10
111.707083
 20
149.441857
 30
0.0
 10
103.513819
 20
148.842135
 30
0.0
 10
99.765556
 20
147.739704
 30
0.0
 10
84.613750
 20
138.003037
 30
0.0
 10
77.637569
 20
127.825398
 30
0.0
 10
76.120625
 20
124.306440
 30
0.0
 10
75.185764
 20
121.722343
 30
0.0
 10
74.056875
 20
122.366162
 30
0.0
 10
70.740764
 20
129.642204
 30
0.0
 10
63.535278
 20
139.317135
 30
0.0
 10
50.059167
 20
147.713246
 30
0.0
 10
45.808194
 20
149.256648
 30
0.0
 10
39.211250
 20
149.918107
 30
0.0
 10
36.195000
 20
149.997482
 30
0.0
 10
35.313056
 20
149.997482
 30
0.0
 10
30.285972
 20
149.300746
 30
0.0
 10
26.008542
 20
148.268871
 30
0.0
 10
20.134792
 20
145.587760
 30
0.0
 10
10.503958
 20
137.914843
 30
0.0
 10
2.575278
 20
125.144287
 30
0.0
 10
0.000000
 20
110.204148
 30
0.0
 10
1.940278
 20
97.177829
 30
0.0
 10
2.848681
 20
93.685329
 30
0.0
 10
4.250972
 20
90.042898
 30
0.0
 10
6.023681
 20
86.074148
 30
0.0
 10
16.069028
 20
71.169287
 30
0.0
 10
30.823958
 20
56.581926
 30
0.0
 10
35.992153
 20
51.960537
 30
0.0
 10
40.128472
 20
48.309287
 30
0.0
 10
60.351458
 20
27.468940
 30
0.0
 10
73.060278
 20
3.797565
 30
0.0
 10
74.321458
 20
0.216843
 30
0.0
 10
75.529722
 20
1.504510
 30
0.0
 10
82.638194
 20
17.696996
 30
0.0
 10
94.094653
 20
33.598454
 30
0.0
 10
98.548472
 20
37.831787
 30
0.0
 10
104.281111
 20
43.211648
 30
0.0
 10
105.824514
 20
44.693315
 30
0.0
 10
108.055833
 20
46.792343
 30
0.0
 10
115.984514
 20
53.512760
 30
0.0
 10
122.678472
 20
59.395329
 30
0.0
 10
141.922500
 20
81.858454
 30
0.0
 10
142.866181
 20
83.587065
 30
0.0
 10
145.732500
 20
89.892968
 30
0.0
 10
146.323403
 20
91.709773
 30
0.0
 10
148.210764
 20
97.177829
 30
0.0
 10
149.348472
 20
115.575190
 30
0.0
  0
LWPOLYLINE
  5
101
100
AcDbEntity
  8
cat
 62
7
100
AcDbPolyline
 90
1058
 70
0
 10
105.114765
 20
0.282301
 30
0.0
 10
103.770980
 20
0.341142
 30
0.0
 10
102.492071
 20
0.402059
 30
0.0
 10
101.266399
 20
0.466059
 30
0.0
 10
100.082325
 20
0.534156
 30
0.0
 10
98.928211
 20
0.607356
 30
0.0
 10
97.792421
 20
0.686669
 30
0.0
 10
96.663315
 20
0.773108
 30
0.0
 10
95.529256
 20
0.867681
 30
0.0
 10
94.378605
 20
0.971400
 30
0.0
 10
93.199729
 20
1.085274
 30
0.0
 10
91.980983
 20
1.210313
 30
0.0
 10
90.710738
 20
1.347526
 30
0.0
 10
89.377351
 20
1.497923
 30
0.0
 10
87.969183
 20
1.662515
 30
0.0
 10
86.474596
 20
1.842313
 30
0.0
 10
84.881957
 20
2.038327
 30
0.0
 10
83.956491
 20
2.151405
 30
0.0
 10
83.109486
 20
2.250302
 30
0.0
 10
82.332206
 20
2.335197
 30
0.0
 10
81.615935
 20
2.406261
 30
0.0
 10
80.951942
 20
2.463673
 30
0.0
 10
80.331505
 20
2.507604
 30
0.0
 10
79.745899
 20
2.538230
 30
0.0
 10
79.186397
 20
2.555728
 30
0.0
 10
78.644276
 20
2.560244
 30
0.0
 10
78.110805
 20
2.552003
 30
0.0
 10
77.577267
 20
2.531147
 30
0.0
 10
77.034932
 20
2.497861
 30
0.0
 10
76.475074
 20
2.452316
 30
0.0
 10
75.888969
 20
2.394687
 30
0.0
 10
75.267891
 20
2.325147
 30
0.0
 10
74.603119
 20
2.243876
 30
0.0
 10
74.200913
 20
2.195274
 30
0.0
 10
73.761481
 20
2.146213
 30
0.0
 10
73.289157
 20
2.097027
 30
0.0
 10
72.788289
 20
2.048044
 30
0.0
 10
72.263220
 20
1.999604
 30
0.0
 10
71.718291
 20
1.952027
 30
0.0
 10
71.157846
 20
1.905652
 30
0.0
 10
70.586227
 20
1.860804
 30
0.0
 10
70.007779
 20
1.817822
 30
0.0
 10
69.426844
 20
1.777038
 30
0.0
 10
68.847761
 20
1.738777
 30
0.0
 10
68.274881
 20
1.703378
 30
0.0
 10
67.712545
 20
1.671165
 30
0.0
 10
67.165090
 20
1.642483
 30
0.0
 10
66.636863
 20
1.617647
 30
0.0
 10
66.132208
 20
1.596988
 30
0.0
 10
65.365125
 20
1.569077
 30
0.0
 10
64.677324
 20
1.546414
 30
0.0
 10
64.061772
 20
1.529453
 30
0.0
 10
63.511450
 20
1.518672
 30
0.0
 10
63.019325
 20
1.514551
 30
0.0
 10
62.578375
 20
1.517515
 30
0.0
 10
62.181571
 20
1.528041
 30
0.0
 10
61.821884
 20
1.546612
 30
0.0
 10
61.492291
 20
1.573677
 30
0.0
 10
61.185769
 20
1.609702
 30
0.0
 10
60.895281
 20
1.655157
 30
0.0
 10
60.613809
 20
1.710509
 30
0.0
 10
60.334327
 20
1.776222
 30
0.0
 10
60.049802
 20
1.852755
 30
0.0
 10
59.753212
 20
1.940580
 30
0.0
 10
59.437530
 20
2.040162
 30
0.0
 10
58.924441
 20
2.188196
 30
0.0
 10
58.334323
 20
2.326488
 30
0.0
 10
57.668327
 20
2.454955
 30
0.0
 10
56.927609
 20
2.573520
 30
0.0
 10
56.113324
 20
2.682096
 30
0.0
 10
55.226630
 20
2.780617
 30
0.0
 10
54.268675
 20
2.868992
 30
0.0
 10
53.240618
 20
2.947148
 30
0.0
 10
52.143615
 20
3.015003
 30
0.0
 10
50.978819
 20
3.072477
 30
0.0
 10
49.747387
 20
3.119493
 30
0.0
 10
48.450472
 20
3.155970
 30
0.0
 10
47.089232
 20
3.181821
 30
0.0
 10
45.664817
 20
3.197005
 30
0.0
 10
44.178387
 20
3.201379
 30
0.0
 10
42.631095
 20
3.194916
 30
0.0
 10
41.664492
 20
3.188651
 30
0.0
 10
40.788178
 20
3.185349
 30
0.0
 10
39.996835
 20
3.185324
 30
0.0
 10
39.285139
 20
3.188851
 30
0.0
 10
38.647762
 20
3.196274
 30
0.0
 10
38.079392
 20
3.207817
 30
0.0
 10
37.574703
 20
3.223819
 30
0.0
 10
37.128377
 20
3.244590
 30
0.0
 10
36.389510
 20
3.301529
 30
0.0
 10
35.820229
 20
3.380997
 30
0.0
 10
35.377947
 20
3.485357
 30
0.0
 10
35.020103
 20
3.616966
 30
0.0
 10
34.516907
 20
3.855263
 30
0.0
 10
34.119637
 20
4.088830
 30
0.0
 10
33.814724
 20
4.340372
 30
0.0
 10
33.588616
 20
4.632587
 30
0.0
 10
33.427743
 20
4.988185
 30
0.0
 10
33.318543
 20
5.429865
 30
0.0
 10
33.247457
 20
5.980331
 30
0.0
 10
33.200919
 20
6.662290
 30
0.0
 10
33.189517
 20
6.884159
 30
0.0
 10
33.178115
 20
7.106028
 30
0.0
 10
33.166713
 20
7.327897
 30
0.0
 10
33.155311
 20
7.549769
 30
0.0
 10
33.143910
 20
7.771635
 30
0.0
 10
33.132508
 20
7.993507
 30
0.0
 10
33.121106
 20
8.215373
 30
0.0
 10
33.109704
 20
8.437245
 30
0.0
 10
33.053915
 20
8.327207
 30
0.0
 10
32.998125
 20
8.217168
 30
0.0
 10
32.942335
 20
8.107132
 30
0.0
 10
32.886548
 20
7.997094
 30
0.0
 10
32.830759
 20
7.887056
 30
0.0
 10
32.774969
 20
7.777017
 30
0.0
 10
32.719179
 20
7.666979
 30
0.0
 10
32.663392
 20
7.556943
 30
0.0
 10
32.336983
 20
7.071518
 30
0.0
 10
31.874807
 20
6.612201
 30
0.0
 10
31.300039
 20
6.190384
 30
0.0
 10
30.635849
 20
5.817452
 30
0.0
 10
29.905415
 20
5.504807
 30
0.0
 10
29.131909
 20
5.263834
 30
0.0
 10
28.338501
 20
5.105922
 30
0.0
 10
27.548367
 20
5.042470
 30
0.0
 10
27.204465
 20
5.043035
 30
0.0
 10
26.876379
 20
5.055396
 30
0.0
 10
26.571809
 20
5.078341
 30
0.0
 10
26.298454
 20
5.110757
 30
0.0
 10
26.064014
 20
5.151538
 30
0.0
 10
25.876187
 20
5.199578
 30
0.0
 10
25.742674
 20
5.253759
 30
0.0
 10
25.671173
 20
5.312977
 30
0.0
 10
25.598154
 20
5.372749
 30
0.0
 10
25.460290
 20
5.428508
 30
0.0
 10
25.265584
 20
5.479040
 30
0.0
 10
25.022041
 20
5.523117
 30
0.0
 10
24.737666
 20
5.559524
 30
0.0
 10
24.420464
 20
5.587040
 30
0.0
 10
24.078438
 20
5.604454
 30
0.0
 10
23.719594
 20
5.610521
 30
0.0
 10
23.266195
 20
5.605357
 30
0.0
 10
22.888782
 20
5.589072
 30
0.0
 10
22.582567
 20
5.560540
 30
0.0
 10
22.342763
 20
5.518661
 30
0.0
 10
22.164582
 20
5.462293
 30
0.0
 10
22.043238
 20
5.390317
 30
0.0
 10
21.973942
 20
5.301609
 30
0.0
 10
21.951906
 20
5.195039
 30
0.0
 10
21.931496
 20
5.093654
 30
0.0
 10
21.872999
 20
4.964433
 30
0.0
 10
21.780517
 20
4.812671
 30
0.0
 10
21.658151
 20
4.643679
 30
0.0
 10
21.510005
 20
4.462766
 30
0.0
 10
21.340178
 20
4.275232
 30
0.0
 10
21.152773
 20
4.086383
 30
0.0
 10
20.951891
 20
3.901525
 30
0.0
 10
20.617814
 20
3.618969
 30
0.0
 10
20.306494
 20
3.401401
 30
0.0
 10
19.964690
 20
3.237292
 30
0.0
 10
19.539165
 20
3.115118
 30
0.0
 10
18.976680
 20
3.023345
 30
0.0
 10
18.223995
 20
2.950447
 30
0.0
 10
17.227871
 20
2.884895
 30
0.0
 10
15.935071
 20
2.815161
 30
0.0
 10
14.779656
 20
2.759910
 30
0.0
 10
13.832013
 20
2.727096
 30
0.0
 10
13.059547
 20
2.718489
 30
0.0
 10
12.429662
 20
2.735874
 30
0.0
 10
11.909761
 20
2.781009
 30
0.0
 10
11.467249
 20
2.855671
 30
0.0
 10
11.069531
 20
2.961634
 30
0.0
 10
10.684009
 20
3.100671
 30
0.0
 10
10.198510
 20
3.321891
 30
0.0
 10
9.817243
 20
3.566041
 30
0.0
 10
9.532554
 20
3.852235
 30
0.0
 10
9.336792
 20
4.199591
 30
0.0
 10
9.222301
 20
4.627220
 30
0.0
 10
9.181431
 20
5.154244
 30
0.0
 10
9.206529
 20
5.799777
 30
0.0
 10
9.289939
 20
6.582932
 30
0.0
 10
9.337325
 20
6.899876
 30
0.0
 10
9.396661
 20
7.200460
 30
0.0
 10
9.468908
 20
7.486040
 30
0.0
 10
9.555029
 20
7.757984
 30
0.0
 10
9.655983
 20
8.017657
 30
0.0
 10
9.772733
 20
8.266410
 30
0.0
 10
9.906239
 20
8.505613
 30
0.0
 10
10.057462
 20
8.736632
 30
0.0
 10
10.227363
 20
8.960824
 30
0.0
 10
10.416904
 20
9.179552
 30
0.0
 10
10.627046
 20
9.394176
 30
0.0
 10
10.858750
 20
9.606068
 30
0.0
 10
11.112976
 20
9.816578
 30
0.0
 10
11.390687
 20
10.027079
 30
0.0
 10
11.692843
 20
10.238926
 30
0.0
 10
12.020405
 20
10.453486
 30
0.0
 10
12.513689
 20
10.780852
 30
0.0
 10
12.958263
 20
11.110705
 30
0.0
 10
13.358079
 20
11.453735
 30
0.0
 10
13.717089
 20
11.820624
 30
0.0
 10
14.039247
 20
12.222065
 30
0.0
 10
14.328505
 20
12.668750
 30
0.0
 10
14.588816
 20
13.171362
 30
0.0
 10
14.824132
 20
13.740596
 30
0.0
 10
14.879518
 20
13.894562
 30
0.0
 10
14.933652
 20
14.053529
 30
0.0
 10
14.986594
 20
14.217664
 30
0.0
 10
15.038405
 20
14.387130
 30
0.0
 10
15.089149
 20
14.562097
 30
0.0
 10
15.138887
 20
14.742727
 30
0.0
 10
15.187679
 20
14.929194
 30
0.0
 10
15.235589
 20
15.121661
 30
0.0
 10
15.329008
 20
15.525265
 30
0.0
 10
15.419636
 20
15.954875
 30
0.0
 10
15.507969
 20
16.411832
 30
0.0
 10
15.594499
 20
16.897463
 30
0.0
 10
15.679721
 20
17.413111
 30
0.0
 10
15.764130
 20
17.960111
 30
0.0
 10
15.848219
 20
18.539796
 30
0.0
 10
15.932481
 20
19.153508
 30
0.0
 10
16.017413
 20
19.802577
 30
0.0
 10
16.103506
 20
20.488340
 30
0.0
 10
16.191257
 20
21.212135
 30
0.0
 10
16.281158
 20
21.975298
 30
0.0
 10
16.363299
 20
22.685451
 30
0.0
 10
16.441110
 20
23.367478
 30
0.0
 10
16.514697
 20
24.023391
 30
0.0
 10
16.584173
 20
24.655199
 30
0.0
 10
16.649647
 20
25.264914
 30
0.0
 10
16.711228
 20
25.854541
 30
0.0
 10
16.769027
 20
26.426098
 30
0.0
 10
16.823153
 20
26.981590
 30
0.0
 10
16.873717
 20
27.523028
 30
0.0
 10
16.920829
 20
28.052423
 30
0.0
 10
16.964598
 20
28.571783
 30
0.0
 10
17.005134
 20
29.083121
 30
0.0
 10
17.042547
 20
29.588443
 30
0.0
 10
17.076947
 20
30.089766
 30
0.0
 10
17.108445
 20
30.589090
 30
0.0
 10
17.137149
 20
31.088434
 30
0.0
 10
17.163169
 20
31.589805
 30
0.0
 10
17.186619
 20
32.095211
 30
0.0
 10
17.207605
 20
32.606663
 30
0.0
 10
17.226238
 20
33.126175
 30
0.0
 10
17.242626
 20
33.655754
 30
0.0
 10
17.256881
 20
34.197406
 30
0.0
 10
17.269113
 20
34.753146
 30
0.0
 10
17.279431
 20
35.324985
 30
0.0
 10
17.287943
 20
35.914931
 30
0.0
 10
17.294761
 20
36.524994
 30
0.0
 10
17.299996
 20
37.157186
 30
0.0
 10
17.303758
 20
37.813513
 30
0.0
 10
17.306157
 20
38.495989
 30
0.0
 10
17.307286
 20
39.206622
 30
0.0
 10
17.307286
 20
39.947421
 30
0.0
 10
17.306242
 20
40.720399
 30
0.0
 10
17.304633
 20
41.524391
 30
0.0
 10
17.302855
 20
42.280326
 30
0.0
 10
17.300795
 20
42.990160
 30
0.0
 10
17.298312
 20
43.655863
 30
0.0
 10
17.295303
 20
44.279391
 30
0.0
 10
17.291623
 20
44.862710
 30
0.0
 10
17.287136
 20
45.407786
 30
0.0
 10
17.281711
 20
45.916576
 30
0.0
 10
17.275220
 20
46.391043
 30
0.0
 10
17.267530
 20
46.833155
 30
0.0
 10
17.258510
 20
47.244869
 30
0.0
 10
17.248028
 20
47.628152
 30
0.0
 10
17.235952
 20
47.984963
 30
0.0
 10
17.222151
 20
48.317266
 30
0.0
 10
17.206496
 20
48.627024
 30
0.0
 10
17.188855
 20
48.916201
 30
0.0
 10
17.147092
 20
49.440657
 30
0.0
 10
17.095811
 20
49.906338
 30
0.0
 10
17.033964
 20
50.328943
 30
0.0
 10
16.960502
 20
50.724170
 30
0.0
 10
16.874374
 20
51.107727
 30
0.0
 10
16.774533
 20
51.495311
 30
0.0
 10
16.659930
 20
51.902628
 30
0.0
 10
16.529514
 20
52.345370
 30
0.0
 10
16.364158
 20
52.882749
 30
0.0
 10
16.185100
 20
53.432673
 30
0.0
 10
15.998033
 20
53.979640
 30
0.0
 10
15.808648
 20
54.508138
 30
0.0
 10
15.622637
 20
55.002647
 30
0.0
 10
15.445693
 20
55.447664
 30
0.0
 10
15.283506
 20
55.827676
 30
0.0
 10
15.141769
 20
56.127170
 30
0.0
 10
14.897760
 20
56.638667
 30
0.0
 10
14.697937
 20
57.120731
 30
0.0
 10
14.562920
 20
57.519149
 30
0.0
 10
14.513333
 20
57.779694
 30
0.0
 10
14.452902
 20
58.051164
 30
0.0
 10
14.288362
 20
58.479320
 30
0.0
 10
14.044843
 20
59.005405
 30
0.0
 10
13.747476
 20
59.570645
 30
0.0
 10
13.445357
 20
60.175171
 30
0.0
 10
13.240547
 20
60.723111
 30
0.0
 10
13.143208
 20
61.180653
 30
0.0
 10
13.163503
 20
61.513971
 30
0.0
 10
13.200297
 20
61.811188
 30
0.0
 10
13.107202
 20
62.095247
 30
0.0
 10
12.873972
 20
62.384141
 30
0.0
 10
12.490360
 20
62.695859
 30
0.0
 10
12.022948
 20
63.071290
 30
0.0
 10
11.783262
 20
63.456078
 30
0.0
 10
11.716986
 20
64.018338
 30
0.0
 10
11.769804
 20
64.926187
 30
0.0
 10
11.822331
 20
65.825257
 30
0.0
 10
11.761761
 20
66.378582
 30
0.0
 10
11.540394
 20
66.741102
 30
0.0
 10
11.110533
 20
67.067766
 30
0.0
 10
10.767855
 20
67.336258
 30
0.0
 10
10.535842
 20
67.620447
 30
0.0
 10
10.414064
 20
67.921048
 30
0.0
 10
10.402092
 20
68.238765
 30
0.0
 10
10.405733
 20
68.272863
 30
0.0
 10
10.407878
 20
68.307980
 30
0.0
 10
10.408555
 20
68.344031
 30
0.0
 10
10.407821
 20
68.380949
 30
0.0
 10
10.405648
 20
68.418648
 30
0.0
 10
10.402118
 20
68.457053
 30
0.0
 10
10.397241
 20
68.496087
 30
0.0
 10
10.391052
 20
68.535671
 30
0.0
 10
10.383581
 20
68.575730
 30
0.0
 10
10.374858
 20
68.616187
 30
0.0
 10
10.364915
 20
68.656962
 30
0.0
 10
10.353779
 20
68.697975
 30
0.0
 10
10.341482
 20
68.739156
 30
0.0
 10
10.328054
 20
68.780417
 30
0.0
 10
10.313525
 20
68.821689
 30
0.0
 10
10.297930
 20
68.862894
 30
0.0
 10
10.281293
 20
68.903949
 30
0.0
 10
10.263648
 20
68.944781
 30
0.0
 10
10.245024
 20
68.985308
 30
0.0
 10
10.225452
 20
69.025460
 30
0.0
 10
10.204963
 20
69.065151
 30
0.0
 10
10.183584
 20
69.104307
 30
0.0
 10
10.161348
 20
69.142853
 30
0.0
 10
10.138288
 20
69.180707
 30
0.0
 10
10.114432
 20
69.217791
 30
0.0
 10
10.089810
 20
69.254034
 30
0.0
 10
10.064456
 20
69.289354
 30
0.0
 10
10.038392
 20
69.323672
 30
0.0
 10
10.011655
 20
69.356913
 30
0.0
 10
9.984276
 20
69.388998
 30
0.0
 10
9.956280
 20
69.419848
 30
0.0
 10
9.927701
 20
69.449394
 30
0.0
 10
9.692084
 20
69.706891
 30
0.0
 10
9.474701
 20
69.990098
 30
0.0
 10
9.275570
 20
70.299281
 30
0.0
 10
9.094710
 20
70.634699
 30
0.0
 10
8.932142
 20
70.996612
 30
0.0
 10
8.787882
 20
71.385292
 30
0.0
 10
8.661951
 20
71.800994
 30
0.0
 10
8.554367
 20
72.243984
 30
0.0
 10
8.465149
 20
72.714522
 30
0.0
 10
8.394315
 20
73.212870
 30
0.0
 10
8.341884
 20
73.739293
 30
0.0
 10
8.307876
 20
74.294052
 30
0.0
 10
8.292309
 20
74.877411
 30
0.0
 10
8.295196
 20
75.489633
 30
0.0
 10
8.316568
 20
76.130977
 30
0.0
 10
8.356437
 20
76.801706
 30
0.0
 10
8.414822
 20
77.502086
 30
0.0
 10
8.491741
 20
78.232373
 30
0.0
 10
8.587215
 20
78.992837
 30
0.0
 10
8.701261
 20
79.783740
 30
0.0
 10
8.833899
 20
80.605339
 30
0.0
 10
8.985147
 20
81.457902
 30
0.0
 10
9.155023
 20
82.341686
 30
0.0
 10
9.343548
 20
83.256958
 30
0.0
 10
9.550740
 20
84.203980
 30
0.0
 10
9.776617
 20
85.183012
 30
0.0
 10
10.021197
 20
86.194319
 30
0.0
 10
10.284502
 20
87.238160
 30
0.0
 10
10.566548
 20
88.314801
 30
0.0
 10
10.867355
 20
89.424504
 30
0.0
 10
11.186941
 20
90.567530
 30
0.0
 10
11.525326
 20
91.744142
 30
0.0
 10
11.652717
 20
92.231842
 30
0.0
 10
11.777026
 20
92.803893
 30
0.0
 10
11.895442
 20
93.441430
 30
0.0
 10
12.005157
 20
94.125582
 30
0.0
 10
12.103361
 20
94.837496
 30
0.0
 10
12.187244
 20
95.558297
 30
0.0
 10
12.253997
 20
96.269127
 30
0.0
 10
12.300811
 20
96.951114
 30
0.0
 10
12.349357
 20
98.408388
 30
0.0
 10
12.318753
 20
99.644505
 30
0.0
 10
12.201289
 20
100.682515
 30
0.0
 10
11.989254
 20
101.545486
 30
0.0
 10
11.674934
 20
102.256466
 30
0.0
 10
11.250621
 20
102.838524
 30
0.0
 10
10.708602
 20
103.314712
 30
0.0
 10
10.041166
 20
103.708090
 30
0.0
 10
9.730100
 20
103.846167
 30
0.0
 10
9.355001
 20
103.988407
 30
0.0
 10
8.930150
 20
104.130735
 30
0.0
 10
8.469826
 20
104.269080
 30
0.0
 10
7.988310
 20
104.399371
 30
0.0
 10
7.499884
 20
104.517531
 30
0.0
 10
7.018827
 20
104.619490
 30
0.0
 10
6.559420
 20
104.701171
 30
0.0
 10
5.660881
 20
104.870961
 30
0.0
 10
4.869820
 20
105.082317
 30
0.0
 10
4.175552
 20
105.341697
 30
0.0
 10
3.567388
 20
105.655539
 30
0.0
 10
3.034641
 20
106.030302
 30
0.0
 10
2.566624
 20
106.472434
 30
0.0
 10
2.152651
 20
106.988384
 30
0.0
 10
1.782033
 20
107.584604
 30
0.0
 10
1.532522
 20
108.101912
 30
0.0
 10
1.279733
 20
108.748139
 30
0.0
 10
1.029768
 20
109.500636
 30
0.0
 10
0.788732
 20
110.336748
 30
0.0
 10
0.562730
 20
111.233828
 30
0.0
 10
0.357864
 20
112.169219
 30
0.0
 10
0.180240
 20
113.120272
 30
0.0
 10
0.035960
 20
114.064333
 30
0.0
 10
0.000425
 20
114.609897
 30
0.0
 10
0.062326
 20
115.113088
 30
0.0
 10
0.242027
 20
115.600401
 30
0.0
 10
0.559893
 20
116.098314
 30
0.0
 10
1.036290
 20
116.633312
 30
0.0
 10
1.691580
 20
117.231874
 30
0.0
 10
2.546130
 20
117.920488
 30
0.0
 10
3.620303
 20
118.725640
 30
0.0
 10
4.304670
 20
119.239459
 30
0.0
 10
4.892642
 20
119.712997
 30
0.0
 10
5.407372
 20
120.171120
 30
0.0
 10
5.872010
 20
120.638711
 30
0.0
 10
6.309707
 20
121.140632
 30
0.0
 10
6.743614
 20
121.701769
 30
0.0
 10
7.196881
 20
122.346990
 30
0.0
 10
7.692659
 20
123.101174
 30
0.0
 10
8.366710
 20
124.113632
 30
0.0
 10
8.988886
 20
124.960843
 30
0.0
 10
9.582787
 20
125.663605
 30
0.0
 10
10.172009
 20
126.242719
 30
0.0
 10
10.780151
 20
126.718984
 30
0.0
 10
11.430812
 20
127.113200
 30
0.0
 10
12.147587
 20
127.446166
 30
0.0
 10
12.954077
 20
127.738685
 30
0.0
 10
13.284843
 20
127.855925
 30
0.0
 10
13.601084
 20
127.986846
 30
0.0
 10
13.896544
 20
128.127750
 30
0.0
 10
14.164966
 20
128.274950
 30
0.0
 10
14.400093
 20
128.424757
 30
0.0
 10
14.595668
 20
128.573477
 30
0.0
 10
14.745435
 20
128.717420
 30
0.0
 10
14.843134
 20
128.852898
 30
0.0
 10
14.911583
 20
129.058861
 30
0.0
 10
14.981891
 20
129.413971
 30
0.0
 10
15.052057
 20
129.898804
 30
0.0
 10
15.120083
 20
130.493934
 30
0.0
 10
15.183968
 20
131.179936
 30
0.0
 10
15.241712
 20
131.937385
 30
0.0
 10
15.291314
 20
132.746856
 30
0.0
 10
15.330775
 20
133.588924
 30
0.0
 10
15.405712
 20
135.234890
 30
0.0
 10
15.498546
 20
136.478419
 30
0.0
 10
15.632251
 20
137.359159
 30
0.0
 10
15.829799
 20
137.916760
 30
0.0
 10
16.114165
 20
138.190871
 30
0.0
 10
16.508321
 20
138.221141
 30
0.0
 10
17.035242
 20
138.047218
 30
0.0
 10
17.717901
 20
137.708752
 30
0.0
 10
18.030571
 20
137.524750
 30
0.0
 10
18.396915
 20
137.278442
 30
0.0
 10
18.803577
 20
136.980557
 30
0.0
 10
19.237202
 20
136.641822
 30
0.0
 10
19.684434
 20
136.272968
 30
0.0
 10
20.131916
 20
135.884722
 30
0.0
 10
20.566292
 20
135.487813
 30
0.0
 10
20.974207
 20
135.092971
 30
0.0
 10
21.710761
 20
134.387378
 30
0.0
 10
22.313545
 20
133.885013
 30
0.0
 10
22.793632
 20
133.586113
 30
0.0
 10
23.162095
 20
133.490912
 30
0.0
 10
23.307929
 20
133.519773
 30
0.0
 10
23.430008
 20
133.599647
 30
0.0
 10
23.529719
 20
133.730563
 30
0.0
 10
23.608444
 20
133.912551
 30
0.0
 10
23.667569
 20
134.145641
 30
0.0
 10
23.708477
 20
134.429862
 30
0.0
 10
23.732550
 20
134.765243
 30
0.0
 10
23.741175
 20
135.151813
 30
0.0
 10
23.745453
 20
135.492745
 30
0.0
 10
23.756147
 20
135.805868
 30
0.0
 10
23.773577
 20
136.091985
 30
0.0
 10
23.798060
 20
136.351898
 30
0.0
 10
23.829912
 20
136.586408
 30
0.0
 10
23.869453
 20
136.796319
 30
0.0
 10
23.916998
 20
136.982431
 30
0.0
 10
23.972867
 20
137.145547
 30
0.0
 10
24.037376
 20
137.286469
 30
0.0
 10
24.110842
 20
137.405999
 30
0.0
 10
24.193584
 20
137.504940
 30
0.0
 10
24.285920
 20
137.584093
 30
0.0
 10
24.388166
 20
137.644259
 30
0.0
 10
24.500640
 20
137.686243
 30
0.0
 10
24.623659
 20
137.710844
 30
0.0
 10
24.757543
 20
137.718865
 30
0.0
 10
24.910610
 20
137.707424
 30
0.0
 10
25.066987
 20
137.671928
 30
0.0
 10
25.228309
 20
137.610610
 30
0.0
 10
25.396215
 20
137.521704
 30
0.0
 10
25.572340
 20
137.403446
 30
0.0
 10
25.758321
 20
137.254070
 30
0.0
 10
25.955796
 20
137.071810
 30
0.0
 10
26.166402
 20
136.854899
 30
0.0
 10
26.391775
 20
136.601575
 30
0.0
 10
26.633552
 20
136.310069
 30
0.0
 10
26.893370
 20
135.978618
 30
0.0
 10
27.172866
 20
135.605455
 30
0.0
 10
27.473677
 20
135.188815
 30
0.0
 10
27.797440
 20
134.726932
 30
0.0
 10
28.145792
 20
134.218042
 30
0.0
 10
28.520370
 20
133.660378
 30
0.0
 10
28.748327
 20
133.322657
 30
0.0
 10
28.967856
 20
133.006824
 30
0.0
 10
29.180542
 20
132.711211
 30
0.0
 10
29.387967
 20
132.434148
 30
0.0
 10
29.591717
 20
132.173966
 30
0.0
 10
29.793376
 20
131.928996
 30
0.0
 10
29.994527
 20
131.697569
 30
0.0
 10
30.196759
 20
131.478017
 30
0.0
 10
30.401649
 20
131.268669
 30
0.0
 10
30.610787
 20
131.067857
 30
0.0
 10
30.825753
 20
130.873912
 30
0.0
 10
31.048136
 20
130.685165
 30
0.0
 10
31.279519
 20
130.499946
 30
0.0
 10
31.521482
 20
130.316587
 30
0.0
 10
31.775614
 20
130.133418
 30
0.0
 10
32.043497
 20
129.948771
 30
0.0
 10
32.451751
 20
129.662478
 30
0.0
 10
32.838571
 20
129.367812
 30
0.0
 10
33.207568
 20
129.059664
 30
0.0
 10
33.562377
 20
128.732927
 30
0.0
 10
33.906610
 20
128.382495
 30
0.0
 10
34.243891
 20
128.003255
 30
0.0
 10
34.577838
 20
127.590104
 30
0.0
 10
34.912077
 20
127.137930
 30
0.0
 10
35.080437
 20
126.895615
 30
0.0
 10
35.250224
 20
126.641631
 30
0.0
 10
35.421897
 20
126.375335
 30
0.0
 10
35.595907
 20
126.096095
 30
0.0
 10
35.772702
 20
125.803264
 30
0.0
 10
35.952738
 20
125.496213
 30
0.0
 10
36.136467
 20
125.174297
 30
0.0
 10
36.324342
 20
124.836880
 30
0.0
 10
36.516821
 20
124.483320
 30
0.0
 10
36.714345
 20
124.112985
 30
0.0
 10
36.917376
 20
123.725233
 30
0.0
 10
37.126364
 20
123.319422
 30
0.0
 10
37.341759
 20
122.894920
 30
0.0
 10
37.564018
 20
122.451084
 30
0.0
 10
37.793591
 20
121.987279
 30
0.0
 10
38.030932
 20
121.502864
 30
0.0
 10
38.391358
 20
120.745710
 30
0.0
 10
38.749117
 20
119.959349
 30
0.0
 10
39.101378
 20
119.151925
 30
0.0
 10
39.445288
 20
118.331590
 30
0.0
 10
39.778011
 20
117.506488
 30
0.0
 10
40.096708
 20
116.684764
 30
0.0
 10
40.398536
 20
115.874566
 30
0.0
 10
40.680654
 20
115.084036
 30
0.0
 10
40.940220
 20
114.321328
 30
0.0
 10
41.174393
 20
113.594580
 30
0.0
 10
41.380337
 20
112.911944
 30
0.0
 10
41.555210
 20
112.281561
 30
0.0
 10
41.696163
 20
111.711582
 30
0.0
 10
41.800362
 20
111.210146
 30
0.0
 10
41.864963
 20
110.785410
 30
0.0
 10
41.887146
 20
110.445513
 30
0.0
 10
41.920106
 20
109.999794
 30
0.0
 10
42.009850
 20
109.535787
 30
0.0
 10
42.142670
 20
109.108392
 30
0.0
 10
42.304863
 20
108.772506
 30
0.0
 10
42.483380
 20
108.415269
 30
0.0
 10
42.660652
 20
107.929756
 30
0.0
 10
42.816182
 20
107.379733
 30
0.0
 10
42.929477
 20
106.828974
 30
0.0
 10
42.965853
 20
106.630030
 30
0.0
 10
43.010907
 20
106.438243
 30
0.0
 10
43.066916
 20
106.250362
 30
0.0
 10
43.136160
 20
106.063121
 30
0.0
 10
43.220914
 20
105.873265
 30
0.0
 10
43.323454
 20
105.677538
 30
0.0
 10
43.446054
 20
105.472679
 30
0.0
 10
43.590992
 20
105.255433
 30
0.0
 10
43.760545
 20
105.022537
 30
0.0
 10
43.956989
 20
104.770738
 30
0.0
 10
44.182603
 20
104.496774
 30
0.0
 10
44.439657
 20
104.197384
 30
0.0
 10
44.730433
 20
103.869315
 30
0.0
 10
45.057204
 20
103.509310
 30
0.0
 10
45.422247
 20
103.114105
 30
0.0
 10
45.827846
 20
102.680445
 30
0.0
 10
46.305614
 20
102.163163
 30
0.0
 10
46.775965
 20
101.635879
 30
0.0
 10
47.239451
 20
101.097802
 30
0.0
 10
47.696642
 20
100.548155
 30
0.0
 10
48.148096
 20
99.986138
 30
0.0
 10
48.594374
 20
99.410963
 30
0.0
 10
49.036038
 20
98.821850
 30
0.0
 10
49.473657
 20
98.218004
 30
0.0
 10
49.907783
 20
97.598639
 30
0.0
 10
50.338982
 20
96.962962
 30
0.0
 10
50.767815
 20
96.310193
 30
0.0
 10
51.194843
 20
95.639534
 30
0.0
 10
51.620632
 20
94.950204
 30
0.0
 10
52.045743
 20
94.241408
 30
0.0
 10
52.470736
 20
93.512366
 30
0.0
 10
52.896172
 20
92.762284
 30
0.0
 10
53.156474
 20
92.313517
 30
0.0
 10
53.432580
 20
91.869652
 30
0.0
 10
53.725586
 20
91.429504
 30
0.0
 10
54.036587
 20
90.991885
 30
0.0
 10
54.366674
 20
90.555600
 30
0.0
 10
54.716937
 20
90.119460
 30
0.0
 10
55.088477
 20
89.682280
 30
0.0
 10
55.482383
 20
89.242869
 30
0.0
 10
55.899750
 20
88.800034
 30
0.0
 10
56.341670
 20
88.352590
 30
0.0
 10
56.809242
 20
87.899350
 30
0.0
 10
57.303554
 20
87.439122
 30
0.0
 10
57.825699
 20
86.970715
 30
0.0
 10
58.376775
 20
86.492944
 30
0.0
 10
58.957870
 20
86.004612
 30
0.0
 10
59.570087
 20
85.504539
 30
0.0
 10
60.138874
 20
85.031831
 30
0.0
 10
60.781853
 20
84.472441
 30
0.0
 10
61.487112
 20
83.838248
 30
0.0
 10
62.242742
 20
83.141134
 30
0.0
 10
63.036834
 20
82.392988
 30
0.0
 10
63.857480
 20
81.605693
 30
0.0
 10
64.692778
 20
80.791129
 30
0.0
 10
65.530809
 20
79.961184
 30
0.0
 10
66.359667
 20
79.127734
 30
0.0
 10
67.167452
 20
78.302671
 30
0.0
 10
67.942246
 20
77.497872
 30
0.0
 10
68.672146
 20
76.725224
 30
0.0
 10
69.345240
 20
75.996605
 30
0.0
 10
69.949619
 20
75.323912
 30
0.0
 10
70.473375
 20
74.719011
 30
0.0
 10
70.904602
 20
74.193798
 30
0.0
 10
71.035113
 20
74.030671
 30
0.0
 10
71.182713
 20
73.849402
 30
0.0
 10
71.345747
 20
73.651897
 30
0.0
 10
71.522573
 20
73.440067
 30
0.0
 10
71.711541
 20
73.215813
 30
0.0
 10
71.911001
 20
72.981044
 30
0.0
 10
72.119304
 20
72.737667
 30
0.0
 10
72.334803
 20
72.487587
 30
0.0
 10
72.555854
 20
72.232712
 30
0.0
 10
72.780796
 20
71.974950
 30
0.0
 10
73.007993
 20
71.716211
 30
0.0
 10
73.235792
 20
71.458393
 30
0.0
 10
73.462540
 20
71.203414
 30
0.0
 10
73.686597
 20
70.953170
 30
0.0
 10
73.906309
 20
70.709576
 30
0.0
 10
74.120028
 20
70.474532
 30
0.0
 10
74.338321
 20
70.233046
 30
0.0
 10
74.571462
 20
69.970551
 30
0.0
 10
74.817348
 20
69.689585
 30
0.0
 10
75.073880
 20
69.392693
 30
0.0
 10
75.338954
 20
69.082418
 30
0.0
 10
75.610469
 20
68.761302
 30
0.0
 10
75.886321
 20
68.431890
 30
0.0
 10
76.164415
 20
68.096728
 30
0.0
 10
76.442652
 20
67.758355
 30
0.0
 10
76.718925
 20
67.419316
 30
0.0
 10
76.991137
 20
67.082156
 30
0.0
 10
77.257188
 20
66.749419
 30
0.0
 10
77.514969
 20
66.423647
 30
0.0
 10
77.762391
 20
66.107383
 30
0.0
 10
77.997341
 20
65.803173
 30
0.0
 10
78.217731
 20
65.513554
 30
0.0
 10
78.664277
 20
64.897903
 30
0.0
 10
79.164634
 20
64.165692
 30
0.0
 10
79.709843
 20
63.332631
 30
0.0
 10
80.290944
 20
62.414415
 30
0.0
 10
80.898972
 20
61.426753
 30
0.0
 10
81.524969
 20
60.385348
 30
0.0
 10
82.159977
 20
59.305901
 30
0.0
 10
82.795031
 20
58.204114
 30
0.0
 10
83.421175
 20
57.095692
 30
0.0
 10
84.029443
 20
55.996340
 30
0.0
 10
84.610877
 20
54.921760
 30
0.0
 10
85.156517
 20
53.887652
 30
0.0
 10
85.413113
 20
53.390684
 30
0.0
 10
85.657402
 20
52.909724
 30
0.0
 10
85.888266
 20
52.446733
 30
0.0
 10
86.104575
 20
52.003672
 30
0.0
 10
86.305215
 20
51.582512
 30
0.0
 10
86.489069
 20
51.185208
 30
0.0
 10
86.655010
 20
50.813724
 30
0.0
 10
86.801923
 20
50.470029
 30
0.0
 10
86.943921
 20
50.127778
 30
0.0
 10
87.077911
 20
49.801481
 30
0.0
 10
87.204392
 20
49.488522
 30
0.0
 10
87.323848
 20
49.186296
 30
0.0
 10
87.436782
 20
48.892183
 30
0.0
 10
87.543680
 20
48.603572
 30
0.0
 10
87.645040
 20
48.317856
 30
0.0
 10
87.741351
 20
48.032413
 30
0.0
 10
87.833107
 20
47.744637
 30
0.0
 10
87.920805
 20
47.451910
 30
0.0
 10
88.004932
 20
47.151623
 30
0.0
 10
88.085984
 20
46.841167
 30
0.0
 10
88.164456
 20
46.517921
 30
0.0
 10
88.240833
 20
46.179277
 30
0.0
 10
88.315614
 20
45.822624
 30
0.0
 10
88.389296
 20
45.445344
 30
0.0
 10
88.462364
 20
45.044826
 30
0.0
 10
88.535310
 20
44.618461
 30
0.0
 10
88.608637
 20
44.163635
 30
0.0
 10
88.682830
 20
43.677733
 30
0.0
 10
88.758381
 20
43.158142
 30
0.0
 10
88.835786
 20
42.602252
 30
0.0
 10
88.915539
 20
42.007449
 30
0.0
 10
88.998131
 20
41.371116
 30
0.0
 10
89.084054
 20
40.690650
 30
0.0
 10
89.173804
 20
39.963431
 30
0.0
 10
89.267871
 20
39.186849
 30
0.0
 10
89.366750
 20
38.358290
 30
0.0
 10
89.470936
 20
37.475140
 30
0.0
 10
89.580915
 20
36.534793
 30
0.0
 10
89.697185
 20
35.534628
 30
0.0
 10
89.820239
 20
34.472036
 30
0.0
 10
89.875939
 20
33.920526
 30
0.0
 10
89.935352
 20
33.206439
 30
0.0
 10
89.996645
 20
32.359685
 30
0.0
 10
90.057983
 20
31.410151
 30
0.0
 10
90.117538
 20
30.387744
 30
0.0
 10
90.173469
 20
29.322364
 30
0.0
 10
90.223950
 20
28.243908
 30
0.0
 10
90.267144
 20
27.182276
 30
0.0
 10
90.290737
 20
26.549999
 30
0.0
 10
90.314331
 20
25.917725
 30
0.0
 10
90.337925
 20
25.285449
 30
0.0
 10
90.361519
 20
24.653175
 30
0.0
 10
90.385113
 20
24.020899
 30
0.0
 10
90.408706
 20
23.388625
 30
0.0
 10
90.432300
 20
22.756348
 30
0.0
 10
90.455894
 20
22.124075
 30
0.0
 10
90.339968
 20
21.885029
 30
0.0
 10
90.224040
 20
21.645984
 30
0.0
 10
90.108114
 20
21.406939
 30
0.0
 10
89.992186
 20
21.167894
 30
0.0
 10
89.876260
 20
20.928846
 30
0.0
 10
89.760338
 20
20.689801
 30
0.0
 10
89.644409
 20
20.450756
 30
0.0
 10
89.528483
 20
20.211714
 30
0.0
 10
89.342186
 20
19.816849
 30
0.0
 10
89.168388
 20
19.427769
 30
0.0
 10
89.010894
 20
19.054470
 30
0.0
 10
88.873499
 20
18.706948
 30
0.0
 10
88.760021
 20
18.395199
 30
0.0
 10
88.674250
 20
18.129222
 30
0.0
 10
88.620005
 20
17.919009
 30
0.0
 10
88.601067
 20
17.774556
 30
0.0
 10
88.595000
 20
17.665381
 30
0.0
 10
88.577587
 20
17.556280
 30
0.0
 10
88.550070
 20
17.450150
 30
0.0
 10
88.513663
 20
17.349902
 30
0.0
 10
88.469586
 20
17.258445
 30
0.0
 10
88.419054
 20
17.178680
 30
0.0
 10
88.363295
 20
17.113524
 30
0.0
 10
88.303523
 20
17.065871
 30
0.0
 10
88.243754
 20
16.999983
 30
0.0
 10
88.187996
 20
16.882559
 30
0.0
 10
88.137464
 20
16.720168
 30
0.0
 10
88.093386
 20
16.519378
 30
0.0
 10
88.056980
 20
16.286765
 30
0.0
 10
88.029463
 20
16.028901
 30
0.0
 10
88.012050
 20
15.752355
 30
0.0
 10
88.005982
 20
15.463701
 30
0.0
 10
88.041548
 20
14.780839
 30
0.0
 10
88.161131
 20
14.216242
 30
0.0
 10
88.384055
 20
13.754151
 30
0.0
 10
88.729651
 20
13.378790
 30
0.0
 10
89.217240
 20
13.074399
 30
0.0
 10
89.866151
 20
12.825208
 30
0.0
 10
90.695715
 20
12.615449
 30
0.0
 10
91.725248
 20
12.429355
 30
0.0
 10
92.209177
 20
12.348772
 30
0.0
 10
92.671790
 20
12.263890
 30
0.0
 10
93.102168
 20
12.177268
 30
0.0
 10
93.489388
 20
12.091447
 30
0.0
 10
93.822531
 20
12.008987
 30
0.0
 10
94.090668
 20
11.932440
 30
0.0
 10
94.282878
 20
11.864348
 30
0.0
 10
94.388243
 20
11.807272
 30
0.0
 10
94.470779
 20
11.757874
 30
0.0
 10
94.597567
 20
11.711788
 30
0.0
 10
94.762266
 20
11.670024
 30
0.0
 10
94.958546
 20
11.633595
 30
0.0
 10
95.180074
 20
11.603505
 30
0.0
 10
95.420513
 20
11.580757
 30
0.0
 10
95.673522
 20
11.566392
 30
0.0
 10
95.932775
 20
11.561369
 30
0.0
 10
96.190012
 20
11.555301
 30
0.0
 10
96.437244
 20
11.537888
 30
0.0
 10
96.668545
 20
11.510371
 30
0.0
 10
96.877985
 20
11.473965
 30
0.0
 10
97.059634
 20
11.429887
 30
0.0
 10
97.207564
 20
11.379355
 30
0.0
 10
97.315838
 20
11.323597
 30
0.0
 10
97.378534
 20
11.263825
 30
0.0
 10
97.467132
 20
11.204056
 30
0.0
 10
97.649657
 20
11.148297
 30
0.0
 10
97.914962
 20
11.097765
 30
0.0
 10
98.251919
 20
11.053688
 30
0.0
 10
98.649389
 20
11.017278
 30
0.0
 10
99.096237
 20
10.989762
 30
0.0
 10
99.581327
 20
10.972348
 30
0.0
 10
100.093526
 20
10.966281
 30
0.0
 10
100.613326
 20
10.960213
 30
0.0
 10
101.120194
 20
10.942800
 30
0.0
 10
101.601476
 20
10.915283
 30
0.0
 10
102.044506
 20
10.878857
 30
0.0
 10
102.247720
 20
10.857690
 30
0.0
 10
102.436620
 20
10.834745
 30
0.0
 10
102.609627
 20
10.810192
 30
0.0
 10
102.765154
 20
10.784199
 30
0.0
 10
102.901626
 20
10.756880
 30
0.0
 10
103.017453
 20
10.728407
 30
0.0
 10
103.111052
 20
10.698920
 30
0.0
 10
103.180845
 20
10.668598
 30
0.0
 10
103.271439
 20
10.636845
 30
0.0
 10
103.426074
 20
10.603176
 30
0.0
 10
103.641116
 20
10.567887
 30
0.0
 10
103.912924
 20
10.531266
 30
0.0
 10
104.237861
 20
10.493618
 30
0.0
 10
104.612279
 20
10.455224
 30
0.0
 10
105.032553
 20
10.416388
 30
0.0
 10
105.495036
 20
10.377396
 30
0.0
 10
105.996094
 20
10.338551
 30
0.0
 10
106.532085
 20
10.300140
 30
0.0
 10
107.099368
 20
10.262458
 30
0.0
 10
107.694309
 20
10.225800
 30
0.0
 10
108.001017
 20
10.207935
 30
0.0
 10
108.313271
 20
10.190438
 30
0.0
 10
108.630621
 20
10.173363
 30
0.0
 10
108.952611
 20
10.156740
 30
0.0
 10
109.278787
 20
10.140569
 30
0.0
 10
109.608693
 20
10.124906
 30
0.0
 10
109.941874
 20
10.109779
 30
0.0
 10
110.277876
 20
10.095272
 30
0.0
 10
111.123665
 20
10.063198
 30
0.0
 10
111.975178
 20
10.037911
 30
0.0
 10
112.831237
 20
10.019340
 30
0.0
 10
113.690657
 20
10.007374
 30
0.0
 10
114.552264
 20
10.001927
 30
0.0
 10
115.414879
 20
10.002774
 30
0.0
 10
116.277322
 20
10.010084
 30
0.0
 10
117.138413
 20
10.023630
 30
0.0
 10
117.996973
 20
10.043329
 30
0.0
 10
118.851824
 20
10.069096
 30
0.0
 10
119.701781
 20
10.100812
 30
0.0
 10
120.545674
 20
10.138407
 30
0.0
 10
121.382316
 20
10.181773
 30
0.0
 10
122.210531
 20
10.230829
 30
0.0
 10
123.029142
 20
10.285479
 30
0.0
 10
123.836966
 20
10.345626
 30
0.0
 10
124.632824
 20
10.411186
 30
0.0
 10
125.415537
 20
10.482061
 30
0.0
 10
126.183926
 20
10.558162
 30
0.0
 10
126.936813
 20
10.639388
 30
0.0
 10
127.673021
 20
10.725658
 30
0.0
 10
128.391361
 20
10.816875
 30
0.0
 10
129.090668
 20
10.912946
 30
0.0
 10
129.769749
 20
11.013779
 30
0.0
 10
130.427434
 20
11.119282
 30
0.0
 10
131.062538
 20
11.229360
 30
0.0
 10
131.673888
 20
11.343922
 30
0.0
 10
132.260298
 20
11.462876
 30
0.0
 10
132.820596
 20
11.586134
 30
0.0
 10
133.353593
 20
11.713594
 30
0.0
 10
133.858119
 20
11.845171
 30
0.0
 10
134.332988
 20
11.980771
 30
0.0
 10
134.844127
 20
12.134921
 30
0.0
 10
135.304414
 20
12.276898
 30
0.0
 10
135.719727
 20
12.409548
 30
0.0
 10
136.095943
 20
12.535718
 30
0.0
 10
136.438942
 20
12.658248
 30
0.0
 10
136.754585
 20
12.779987
 30
0.0
 10
137.048759
 20
12.903779
 30
0.0
 10
137.327332
 20
13.032472
 30
0.0
 10
137.861192
 20
13.315933
 30
0.0
 10
138.403161
 20
13.653138
 30
0.0
 10
139.000236
 20
14.066845
 30
0.0
 10
139.699421
 20
14.579817
 30
0.0
 10
140.482360
 20
15.191528
 30
0.0
 10
141.090235
 20
15.757336
 30
0.0
 10
141.544108
 20
16.333058
 30
0.0
 10
141.865042
 20
16.974518
 30
0.0
 10
142.074104
 20
17.737534
 30
0.0
 10
142.192355
 20
18.677921
 30
0.0
 10
142.240858
 20
19.851500
 30
0.0
 10
142.240683
 20
21.314085
 30
0.0
 10
142.231680
 20
22.448489
 30
0.0
 10
142.235716
 20
23.332432
 30
0.0
 10
142.258463
 20
24.005255
 30
0.0
 10
142.305549
 20
24.506312
 30
0.0
 10
142.382567
 20
24.874945
 30
0.0
 10
142.495135
 20
25.150501
 30
0.0
 10
142.648867
 20
25.372325
 30
0.0
 10
142.849374
 20
25.579759
 30
0.0
 10
143.046865
 20
25.750926
 30
0.0
 10
143.245007
 20
25.885151
 30
0.0
 10
143.457318
 20
25.985272
 30
0.0
 10
143.697302
 20
26.054118
 30
0.0
 10
143.978475
 20
26.094521
 30
0.0
 10
144.314339
 20
26.109309
 30
0.0
 10
144.718408
 20
26.101294
 30
0.0
 10
145.204191
 20
26.073354
 30
0.0
 10
145.928896
 20
25.991309
 30
0.0
 10
146.557300
 20
25.844706
 30
0.0
 10
147.106067
 20
25.620294
 30
0.0
 10
147.591867
 20
25.304837
 30
0.0
 10
148.031355
 20
24.885097
 30
0.0
 10
148.441201
 20
24.347830
 30
0.0
 10
148.838068
 20
23.679799
 30
0.0
 10
149.238614
 20
22.867767
 30
0.0
 10
149.457277
 20
22.368123
 30
0.0
 10
149.630110
 20
21.907116
 30
0.0
 10
149.762388
 20
21.451793
 30
0.0
 10
149.859371
 20
20.969204
 30
0.0
 10
149.926336
 20
20.426392
 30
0.0
 10
149.968551
 20
19.790410
 30
0.0
 10
149.991298
 20
19.028297
 30
0.0
 10
149.999793
 20
18.107104
 30
0.0
 10
149.960722
 20
16.617095
 30
0.0
 10
149.832184
 20
15.229679
 30
0.0
 10
149.611678
 20
13.936808
 30
0.0
 10
149.296696
 20
12.730443
 30
0.0
 10
148.884730
 20
11.602539
 30
0.0
 10
148.373279
 20
10.545050
 30
0.0
 10
147.759838
 20
9.549934
 30
0.0
 10
147.041901
 20
8.609144
 30
0.0
 10
146.567497
 20
8.143500
 30
0.0
 10
145.832616
 20
7.534893
 30
0.0
 10
144.927938
 20
6.846519
 30
0.0
 10
143.944151
 20
6.141582
 30
0.0
 10
142.971926
 20
5.483279
 30
0.0
 10
142.101957
 20
4.934819
 30
0.0
 10
141.424920
 20
4.559393
 30
0.0
 10
141.031496
 20
4.420207
 30
0.0
 10
140.941044
 20
4.408071
 30
0.0
 10
140.814857
 20
4.373262
 30
0.0
 10
140.658689
 20
4.318229
 30
0.0
 10
140.478287
 20
4.245412
 30
0.0
 10
140.279402
 20
4.157255
 30
0.0
 10
140.067789
 20
4.056194
 30
0.0
 10
139.849194
 20
3.944676
 30
0.0
 10
139.629371
 20
3.825136
 30
0.0
 10
139.404937
 20
3.705595
 30
0.0
 10
139.173131
 20
3.594077
 30
0.0
 10
138.940630
 20
3.493016
 30
0.0
 10
138.714113
 20
3.404859
 30
0.0
 10
138.500254
 20
3.332040
 30
0.0
 10
138.305732
 20
3.277006
 30
0.0
 10
138.137220
 20
3.242197
 30
0.0
 10
138.001403
 20
3.230062
 30
0.0
 10
137.883454
 20
3.223994
 30
0.0
 10
137.766165
 20
3.206581
 30
0.0
 10
137.652619
 20
3.179064
 30
0.0
 10
137.545902
 20
3.142657
 30
0.0
 10
137.449097
 20
3.098580
 30
0.0
 10
137.365297
 20
3.048048
 30
0.0
 10
137.297583
 20
2.992289
 30
0.0
 10
137.249038
 20
2.932520
 30
0.0
 10
137.197634
 20
2.872748
 30
0.0
 10
137.121717
 20
2.816990
 30
0.0
 10
137.024940
 20
2.766458
 30
0.0
 10
136.910976
 20
2.722380
 30
0.0
 10
136.783479
 20
2.685974
 30
0.0
 10
136.646113
 20
2.658457
 30
0.0
 10
136.502538
 20
2.641044
 30
0.0
 10
136.356415
 20
2.634976
 30
0.0
 10
136.210294
 20
2.628908
 30
0.0
 10
136.066716
 20
2.611495
 30
0.0
 10
135.929350
 20
2.583979
 30
0.0
 10
135.801856
 20
2.547572
 30
0.0
 10
135.687892
 20
2.503495
 30
0.0
 10
135.591115
 20
2.452963
 30
0.0
 10
135.515198
 20
2.397204
 30
0.0
 10
135.463791
 20
2.337435
 30
0.0
 10
135.406313
 20
2.277663
 30
0.0
 10
135.312988
 20
2.221905
 30
0.0
 10
135.188700
 20
2.171373
 30
0.0
 10
135.038327
 20
2.127295
 30
0.0
 10
134.866753
 20
2.090888
 30
0.0
 10
134.678855
 20
2.063372
 30
0.0
 10
134.479518
 20
2.045959
 30
0.0
 10
134.273626
 20
2.039891
 30
0.0
 10
134.068129
 20
2.034472
 30
0.0
 10
133.869932
 20
2.018922
 30
0.0
 10
133.683832
 20
1.994312
 30
0.0
 10
133.514634
 20
1.961749
 30
0.0
 10
133.367137
 20
1.922326
 30
0.0
 10
133.246145
 20
1.877133
 30
0.0
 10
133.156460
 20
1.827265
 30
0.0
 10
133.102886
 20
1.773806
 30
0.0
 10
133.047037
 20
1.717187
 30
0.0
 10
132.950839
 20
1.658247
 30
0.0
 10
132.819549
 20
1.598718
 30
0.0
 10
132.658423
 20
1.540327
 30
0.0
 10
132.472729
 20
1.484797
 30
0.0
 10
132.267714
 20
1.433861
 30
0.0
 10
132.048645
 20
1.389239
 30
0.0
 10
131.820776
 20
1.352663
 30
0.0
 10
131.568783
 20
1.315373
 30
0.0
 10
131.280566
 20
1.268699
 30
0.0
 10
130.966238
 20
1.214509
 30
0.0
 10
130.635903
 20
1.154684
 30
0.0
 10
130.299666
 20
1.091085
 30
0.0
 10
129.967637
 20
1.025590
 30
0.0
 10
129.649917
 20
0.960066
 30
0.0
 10
129.356623
 20
0.896391
 30
0.0
 10
128.961315
 20
0.831630
 30
0.0
 10
128.342774
 20
0.760981
 30
0.0
 10
127.529948
 20
0.685969
 30
0.0
 10
126.551786
 20
0.608116
 30
0.0
 10
125.437231
 20
0.528941
 30
0.0
 10
124.215231
 20
0.449975
 30
0.0
 10
122.914740
 20
0.372739
 30
0.0
 10
121.564702
 20
0.298755
 30
0.0
 10
120.194062
 20
0.229548
 30
0.0
 10
118.831772
 20
0.166641
 30
0.0
 10
117.506778
 20
0.111557
 30
0.0
 10
116.248030
 20
0.065820
 30
0.0
 10
115.084473
 20
0.030954
 30
0.0
 10
114.045055
 20
0.008489
 30
0.0
 10
113.158722
 20
-0.000090
 30
0.0
 10
112.454425
 20
0.006796
 30
0.0
 10
112.224524
 20
0.013005
 30
0.0
 10
111.946549
 20
0.021359
 30
0.0
 10
111.624262
 20
0.031688
 30
0.0
 10
111.261432
 20
0.043852
 30
0.0
 10
110.861819
 20
0.057709
 30
0.0
 10
110.429184
 20
0.073146
 30
0.0
 10
109.967291
 20
0.089995
 30
0.0
 10
109.479904
 20
0.108114
 30
0.0
 10
108.970784
 20
0.127361
 30
0.0
 10
108.443700
 20
0.147625
 30
0.0
 10
107.902406
 20
0.168707
 30
0.0
 10
107.350673
 20
0.190523
 30
0.0
 10
106.792262
 20
0.212903
 30
0.0
 10
106.230931
 20
0.235735
 30
0.0
 10
105.670452
 20
0.258820
 30
0.0
 10
105.114581
 20
0.282047
 30
0.0
 10
105.114765
 20
0.282301
 30
0.0
  0
LWPOLYLINE
  5
102
100
AcDbEntity
  8
cat
 62
7
100
AcDbPolyline
 90
66
 70
0
 10
36.571222
 20
10.984950
 30
0.0
 10
37.200462
 20
11.170960
 30
0.0
 10
37.664184
 20
11.375291
 30
0.0
 10
37.968496
 20
11.628526
 30
0.0
 10
38.119499
 20
11.961241
 30
0.0
 10
38.123309
 20
12.404000
 30
0.0
 10
37.986008
 20
12.987390
 30
0.0
 10
37.713703
 20
13.741973
 30
0.0
 10
37.312507
 20
14.698337
 30
0.0
 10
37.087107
 20
15.233475
 30
0.0
 10
36.866223
 20
15.788392
 30
0.0
 10
36.655443
 20
16.346957
 30
0.0
 10
36.460365
 20
16.893049
 30
0.0
 10
36.286575
 20
17.410543
 30
0.0
 10
36.139673
 20
17.883302
 30
0.0
 10
36.025249
 20
18.295211
 30
0.0
 10
35.948897
 20
18.630138
 30
0.0
 10
35.810952
 20
19.317682
 30
0.0
 10
35.682228
 20
19.868777
 30
0.0
 10
35.555775
 20
20.297219
 30
0.0
 10
35.424646
 20
20.616810
 30
0.0
 10
35.281895
 20
20.841358
 30
0.0
 10
35.120572
 20
20.984656
 30
0.0
 10
34.933732
 20
21.060514
 30
0.0
 10
34.714428
 20
21.082754
 30
0.0
 10
34.601127
 20
21.078210
 30
0.0
 10
34.495125
 20
21.065143
 30
0.0
 10
34.398763
 20
21.044484
 30
0.0
 10
34.314387
 20
21.017165
 30
0.0
 10
34.244331
 20
20.984106
 30
0.0
 10
34.190940
 20
20.946206
 30
0.0
 10
34.156557
 20
20.904389
 30
0.0
 10
34.143518
 20
20.859561
 30
0.0
 10
34.138636
 20
20.709201
 30
0.0
 10
34.127601
 20
20.364918
 30
0.0
 10
34.111119
 20
19.848841
 30
0.0
 10
34.089896
 20
19.183090
 30
0.0
 10
34.064665
 20
18.389789
 30
0.0
 10
34.036102
 20
17.491055
 30
0.0
 10
34.004908
 20
16.509018
 30
0.0
 10
33.971794
 20
15.465800
 30
0.0
 10
33.951305
 20
14.819475
 30
0.0
 10
33.930816
 20
14.173149
 30
0.0
 10
33.910326
 20
13.526824
 30
0.0
 10
33.889837
 20
12.880498
 30
0.0
 10
33.869348
 20
12.234172
 30
0.0
 10
33.848858
 20
11.587847
 30
0.0
 10
33.828369
 20
10.941521
 30
0.0
 10
33.807880
 20
10.295196
 30
0.0
 10
33.913027
 20
10.320596
 30
0.0
 10
34.018180
 20
10.345996
 30
0.0
 10
34.123331
 20
10.371396
 30
0.0
 10
34.228478
 20
10.396796
 30
0.0
 10
34.333629
 20
10.422196
 30
0.0
 10
34.438776
 20
10.447596
 30
0.0
 10
34.543927
 20
10.472996
 30
0.0
 10
34.649077
 20
10.498396
 30
0.0
 10
34.840122
 20
10.545008
 30
0.0
 10
35.061006
 20
10.599668
 30
0.0
 10
35.303841
 20
10.660380
 30
0.0
 10
35.560751
 20
10.725144
 30
0.0
 10
35.823841
 20
10.791969
 30
0.0
 10
36.085238
 20
10.858864
 30
0.0
 10
36.337045
 20
10.923826
 30
0.0
 10
36.571391
 20
10.984859
 30
0.0
 10
36.571222
 20
10.984950
 30
0.0
  0
LWPOLYLINE
  5
103
100
AcDbEntity
  8
cat
 62
7
100
AcDbPolyline
 90
34
 70
0
 10
24.739890
 20
12.926661
 30
0.0
 10
24.966630
 20
13.083515
 30
0.0
 10
25.180075
 20
13.355882
 30
0.0
 10
25.369742
 20
13.711115
 30
0.0
 10
25.525149
 20
14.116572
 30
0.0
 10
25.635810
 20
14.539609
 30
0.0
 10
25.691242
 20
14.947575
 30
0.0
 10
25.680964
 20
15.307835
 30
0.0
 10
25.594487
 20
15.587737
 30
0.0
 10
25.514122
 20
15.700999
 30
0.0
 10
25.428565
 20
15.753794
 30
0.0
 10
25.332938
 20
15.741263
 30
0.0
 10
25.222367
 20
15.658527
 30
0.0
 10
25.091973
 20
15.500720
 30
0.0
 10
24.936881
 20
15.262976
 30
0.0
 10
24.752214
 20
14.940432
 30
0.0
 10
24.533095
 20
14.528213
 30
0.0
 10
24.373222
 20
14.217588
 30
0.0
 10
24.224074
 20
13.923016
 30
0.0
 10
24.088916
 20
13.651286
 30
0.0
 10
23.971012
 20
13.409188
 30
0.0
 10
23.873627
 20
13.203510
 30
0.0
 10
23.800025
 20
13.041043
 30
0.0
 10
23.753469
 20
12.928577
 30
0.0
 10
23.737227
 20
12.872898
 30
0.0
 10
23.758611
 20
12.816736
 30
0.0
 10
23.819494
 20
12.779067
 30
0.0
 10
23.914976
 20
12.759650
 30
0.0
 10
24.040158
 20
12.758239
 30
0.0
 10
24.190141
 20
12.774439
 30
0.0
 10
24.360024
 20
12.808111
 30
0.0
 10
24.544909
 20
12.858959
 30
0.0
 10
24.739895
 20
12.926726
 30
0.0
 10
24.739890
 20
12.926661
 30
0.0
  0
LWPOLYLINE
  5
104
100
AcDbEntity
  8
star
 62
7
100
AcDbPolyline
 90
11
 70
0
 10
122.391009
 20
1.304499
 30
0.0
 10
75.680327
 20
35.761419
 30
0.0
 10
29.804357
 20
0.095826
 30
0.0
 10
46.662794
 20
57.265841
 30
0.0
 10
0.095826
 20
91.935467
 30
0.0
 10
57.225599
 20
92.811546
 30
0.0
 10
74.321594
 20
149.904171
 30
0.0
 10
92.771299
 20
93.275576
 30
0.0
 10
149.904173
 20
93.891137
 30
0.0
 10
104.176943
 20
58.016662
 30
0.0
 10
122.391009
 20
1.304499
 30
0.0
  0
ENDSEC
  0
SECTION
  2
OBJECTS
  0
DICTIONARY
  5
C
330
0
100
AcDbDictionary
  3
ACAD_GROUP
350
D
  3
ACAD_MLINESTYLE
350
17
  0
DICTIONARY
  5
D
330
C
100
AcDbDictionary
  0
DICTIONARY
  5
1A
330
C
100
AcDbDictionary
  0
DICTIONARY
  5
17
330
C
100
AcDbDictionary
  3
STANDARD
350
18
  0
DICTIONARY
  5
19
330
C
100
AcDbDictionary
  0
ENDSEC
  0
EOF
