  0
SECTION
  2
HEADER
  9
$ACADVER
  1
AC1014
  9
$HANDSEED
  5
FFFF
  9
$MEASUREMENT
 70
     1
  0
ENDSEC
  0
SECTION
  2
TABLES
  0
TABLE
  2
VPORT
  5
8
330
0
100
AcDbSymbolTable
 70
     4
  0
VPORT
  5
2E
330
8
100
AcDbSymbolTableRecord
100
AcDbViewportTableRecord
  2
*ACTIVE
 70
     0
 10
0.0
 20
0.0
 11
1.0
 21
1.0
 12
210.0
 22
148.5
 13
0.0
 23
0.0
 14
10.0
 24
10.0
 15
10.0
 25
10.0
 16
0.0
 26
0.0
 36
1.0
 17
0.0
 27
0.0
 37
0.0
 40
341.0
 41
1.24
 42
50.0
 43
0.0
 44
0.0
 50
0.0
 51
0.0
 71
     0
 72
   100
 73
     1
 74
     3
 75
     0
 76
     0
 77
     0
 78
     0
  0
ENDTAB
  0
TABLE
  2
LTYPE
  5
5
330
0
100
AcDbSymbolTable
 70
     1
  0
LTYPE
  5
14
330
5
100
AcDbSymbolTableRecord
100
AcDbLinetypeTableRecord
  2
BYBLOCK
 70
     0
  3

 72
    65
 73
     0
 40
0.0
  0
LTYPE
  5
15
330
5
100
AcDbSymbolTableRecord
100
AcDbLinetypeTableRecord
  2
BYLAYER
 70
     0
  3

 72
    65
 73
     0
 40
0.0
  0
LTYPE
  5
16
330
5
100
AcDbSymbolTableRecord
100
AcDbLinetypeTableRecord
  2
CONTINUOUS
 70
     0
  3
Solid line
 72
    65
 73
     0
 40
0.0
  0
ENDTAB
  0
TABLE
  2
LAYER
  5
2
100
AcDbSymbolTable
 70
3
  0
LAYER
  5
50
100
AcDbSymbolTableRecord
100
AcDbLayerTableRecord
  2
0
 70
0
  6
CONTINUOUS
  0
LAYER
  5
51
100
AcDbSymbolTableRecord
100
AcDbLayerTableRecord
  2
heart
 70
0
  6
CONTINUOUS
  0
LAYER
  5
52
100
AcDbSymbolTableRecord
100
AcDbLayerTableRecord
  2
star
 70
0
  6
CONTINUOUS
  0
ENDTAB
  0
TABLE
  2
STYLE
  5
3
330
0
100
AcDbSymbolTable
 70
     1
  0
STYLE
  5
11
330
3
100
AcDbSymbolTableRecord
100
AcDbTextStyleTableRecord
  2
STANDARD
 70
     0
 40
0.0
 41
1.0
 50
0.0
 71
     0
 42
2.5
  3
txt
  4

  0
ENDTAB
  0
TABLE
  2
VIEW
  5
6
330
0
100
AcDbSymbolTable
 70
     0
  0
ENDTAB
  0
TABLE
  2
UCS
  5
7
330
0
100
AcDbSymbolTable
 70
     0
  0
ENDTAB
  0
TABLE
  2
APPID
  5
9
330
0
100
AcDbSymbolTable
 70
     2
  0
APPID
  5
12
330
9
100
AcDbSymbolTableRecord
100
AcDbRegAppTableRecord
  2
ACAD
 70
     0
  0
ENDTAB
  0
TABLE
  2
DIMSTYLE
  5
A
330
0
100
AcDbSymbolTable
 70
     1
  0
DIMSTYLE
105
27
330
A
100
AcDbSymbolTableRecord
100
AcDbDimStyleTableRecord
  2
ISO-25
 70
     0
  3

  4

  5

  6

  7

 40
1.0
 41
2.5
 42
0.625
 43
3.75
 44
1.25
 45
0.0
 46
0.0
 47
0.0
 48
0.0
140
2.5
141
2.5
142
0.0
143
0.03937007874016
144
1.0
145
0.0
146
1.0
147
0.625
 71
     0
 72
     0
 73
     0
 74
     0
 75
     0
 76
     0
 77
     1
 78
     8
170
     0
171
     3
172
     1
173
     0
174
     0
175
     0
176
     0
177
     0
178
     0
270
     2
271
     2
272
     2
273
     2
274
     3
340
11
275
     0
280
     0
281
     0
282
     0
283
     0
284
     8
285
     0
286
     0
287
     3
288
     0
  0
ENDTAB
  0
TABLE
  2
BLOCK_RECORD
  5
1
330
0
100
AcDbSymbolTable
 70
     1
  0
BLOCK_RECORD
  5
1F
330
1
100
AcDbSymbolTableRecord
100
AcDbBlockTableRecord
  2
*MODEL_SPACE
  0
BLOCK_RECORD
  5
1B
330
1
100
AcDbSymbolTableRecord
100
AcDbBlockTableRecord
  2
*PAPER_SPACE
  0
ENDTAB
  0
ENDSEC
  0
SECTION
  2
BLOCKS
  0
BLOCK
  5
20
330
1F
100
AcDbEntity
  8
0
100
AcDbBlockBegin
  2
*MODEL_SPACE
 70
     0
 10
0.0
 20
0.0
 30
0.0
  3
*MODEL_SPACE
  1

  0
ENDBLK
  5
21
330
1F
100
AcDbEntity
  8
0
100
AcDbBlockEnd
  0
BLOCK
  5
1C
330
1B
100
AcDbEntity
 67
     1
  8
0
100
AcDbBlockBegin
  2
*PAPER_SPACE
  1

  0
ENDBLK
  5
1D
330
1B
100
AcDbEntity
 67
     1
  8
0
100
AcDbBlockEnd
  0
ENDSEC
  0
SECTION
  2
ENTITIES
  0
LWPOLYLINE
  5
100
100
AcDbEntity
  8
heart
 62
7
100
AcDbPolyline
 90
53
 70
0
 10
149.348472
 20
115.575208
 30
0.0
 10
145.173265
 20
128.820315
 30
0.0
 10
138.077222
 20
138.214722
 30
0.0
 10
131.295069
 20
143.912083
 30
0.0
 10
129.786944
 20
144.785208
 30
0.0
 10
121.329097
 20
148.365903
 30
0.0
 10
111.707083
 20
149.441875
 30
0.0
 10
103.513819
 20
148.842153
 30
0.0
 10
99.765556
 20
147.739722
 30
0.0
 10
84.613750
 20
138.003056
 30
0.0
 10
77.637569
 20
127.825417
 30
0.0
 10
76.120625
 20
124.306458
 30
0.0
 10
75.185764
 20
121.722361
 30
0.0
 10
74.056875
 20
122.366181
 30
0.0
 10
70.740764
 20
129.642222
 30
0.0
 10
63.535278
 20
139.317153
 30
0.0
 10
50.059167
 20
147.713264
 30
0.0
 10
45.808194
 20
149.256667
 30
0.0
 10
39.211250
 20
149.918125
 30
0.0
 10
36.195000
 20
149.997500
 30
0.0
 10
35.313056
 20
149.997500
 30
0.0
 10
30.285972
 20
149.300764
 30
0.0
 10
26.008542
 20
148.268889
 30
0.0
 10
20.134792
 20
145.587778
 30
0.0
 10
10.503958
 20
137.914861
 30
0.0
 10
2.575278
 20
125.144306
 30
0.0
 10
0.000000
 20
110.204167
 30
0.0
 10
1.940278
 20
97.177847
 30
0.0
 10
2.848681
 20
93.685347
 30
0.0
 10
4.250972
 20
90.042917
 30
0.0
 10
6.023681
 20
86.074167
 30
0.0
 10
16.069028
 20
71.169306
 30
0.0
 10
30.823958
 20
56.581944
 30
0.0
 10
35.992153
 20
51.960556
 30
0.0
 10
40.128472
 20
48.309306
 30
0.0
 10
60.351458
 20
27.468958
 30
0.0
 10
73.060278
 20
3.797584
 30
0.0
 10
74.321458
 20
0.216861
 30
0.0
 10
75.529722
 20
1.504528
 30
0.0
 10
82.638194
 20
17.697014
 30
0.0
 10
94.094653
 20
33.598472
 30
0.0
 10
98.548472
 20
37.831806
 30
0.0
 10
104.281111
 20
43.211667
 30
0.0
 10
105.824514
 20
44.693333
 30
0.0
 10
108.055833
 20
46.792361
 30
0.0
 10
115.984514
 20
53.512778
 30
0.0
 10
122.678472
 20
59.395347
 30
0.0
 10
141.922500
 20
81.858472
 30
0.0
 10
142.866181
 20
83.587083
 30
0.0
 10
145.732500
 20
89.892986
 30
0.0
 10
146.323403
 20
91.709792
 30
0.0
 10
148.210764
 20
97.177847
 30
0.0
 10
149.348472
 20
115.575208
 30
0.0
  0
LWPOLYLINE
  5
101
100
AcDbEntity
  8
star
 62
7
100
AcDbPolyline
 90
11
 70
0
 10
122.391009
 20
1.304517
 30
0.0
 10
75.680327
 20
35.761437
 30
0.0
 10
29.804357
 20
0.095844
 30
0.0
 10
46.662794
 20
57.265859
 30
0.0
 10
0.095826
 20
91.935485
 30
0.0
 10
57.225599
 20
92.811565
 30
0.0
 10
74.321594
 20
149.904189
 30
0.0
 10
92.771299
 20
93.275594
 30
0.0
 10
149.904173
 20
93.891155
 30
0.0
 10
104.176943
 20
58.016680
 30
0.0
 10
122.391009
 20
1.304517
 30
0.0
  0
ENDSEC
  0
SECTION
  2
OBJECTS
  0
DICTIONARY
  5
C
330
0
100
AcDbDictionary
  3
ACAD_GROUP
350
D
  3
ACAD_MLINESTYLE
350
17
  0
DICTIONARY
  5
D
330
C
100
AcDbDictionary
  0
DICTIONARY
  5
1A
330
C
100
AcDbDictionary
  0
DICTIONARY
  5
17
330
C
100
AcDbDictionary
  3
STANDARD
350
18
  0
DICTIONARY
  5
19
330
C
100
AcDbDictionary
  0
ENDSEC
  0
EOF
