<?xml version="1.0" encoding="UTF-8" standalone="no"?>
<!-- Created with Inkscape (http://www.inkscape.org/) -->

<svg
   xmlns:dc="http://purl.org/dc/elements/1.1/"
   xmlns:cc="http://creativecommons.org/ns#"
   xmlns:rdf="http://www.w3.org/1999/02/22-rdf-syntax-ns#"
   xmlns:svg="http://www.w3.org/2000/svg"
   xmlns="http://www.w3.org/2000/svg"
   xmlns:sodipodi="http://sodipodi.sourceforge.net/DTD/sodipodi-0.dtd"
   xmlns:inkscape="http://www.inkscape.org/namespaces/inkscape"
   width="744.09448819"
   height="1052.3622047"
   id="svg4498"
   version="1.1"
   inkscape:version="0.48.4 r9939"
   sodipodi:docname="DXFLib.dxf">
  <defs
     id="defs4500" />
  <sodipodi:namedview
     id="base"
     pagecolor="#ffffff"
     bordercolor="#666666"
     borderopacity="1.0"
     inkscape:pageopacity="0.0"
     inkscape:pageshadow="2"
     inkscape:zoom="0.49497475"
     inkscape:cx="64.680936"
     inkscape:cy="393.56788"
     inkscape:document-units="px"
     inkscape:current-layer="layer2"
     showgrid="false"
     inkscape:window-width="1280"
     inkscape:window-height="737"
     inkscape:window-x="-8"
     inkscape:window-y="-8"
     inkscape:window-maximized="1" />
  <metadata
     id="metadata4503">
    <rdf:RDF>
      <cc:Work
         rdf:about="">
        <dc:format>image/svg+xml</dc:format>
        <dc:type
           rdf:resource="http://purl.org/dc/dcmitype/StillImage" />
        <dc:title></dc:title>
      </cc:Work>
    </rdf:RDF>
  </metadata>
  <g
     inkscape:groupmode="layer"
     id="layer2"
     inkscape:label="heart"
     style="display:inline">
    <path
       style="fill:#000000"
       d="M 529.1875,642.84375 514.39346,595.91227 489.25,562.625 m 0,0 -24.03125,-20.1875 -5.34375,-3.09375 -29.96875,-12.6875 -34.09375,-3.8125 -29.03125,2.125 -13.28125,3.90625 -53.6875,34.5 -24.71875,36.0625 -5.375,12.46875 -3.3125,9.15625 -4,-2.28125 L 250.65625,593 225.125,558.71875 l -47.75,-29.75 -15.0625,-5.46875 -23.375,-2.34375 -10.6875,-0.28125 -3.125,0 -17.8125,2.46875 L 92.15625,527 71.34375,536.5 37.21875,563.6875 9.125,608.9375 0,661.875 l 6.875,46.15625 3.21875,12.375 4.96875,12.90625 6.28125,14.0625 35.59375,52.8125 52.28125,51.6875 18.3125,16.375 14.65625,12.9375 71.65625,73.84375 45.03125,83.87495 4.46875,12.6876 4.28125,-4.5626 25.1875,-57.37495 40.59375,-56.34375 15.78125,-15 L 369.5,899.25 374.96875,894 382.875,886.5625 410.96875,862.75 434.6875,841.90625 502.875,762.3125 l 3.34375,-6.125 10.15625,-22.34375 2.09375,-6.4375 6.6875,-19.375 4.03125,-65.1875"
       id="path4521"
       inkscape:connector-curvature="0"
       sodipodi:nodetypes="cccccccccccccccccccccccccccccccccccccccccccccccccccccc" />
  </g>
  <g
     inkscape:label="star"
     inkscape:groupmode="layer"
     id="layer1"
     style="display:none"
     sodipodi:insensitive="true">
    <path
       style="fill:#ffff00;fill-rule:evenodd;stroke:#000000;stroke-width:0.67907852px;stroke-linecap:butt;stroke-linejoin:miter;stroke-opacity:1"
       inkscape:transform-center-x="1.0750159"
       inkscape:transform-center-y="-26.836221"
       d="M 433.66893,1047.7399 268.15864,925.64845 105.60599,1052.0226 165.34061,849.45168 0.33953926,726.60655 202.76787,723.50233 263.34423,521.20563 328.7172,721.85813 531.15652,719.67701 369.1309,846.79129 z"
       id="path4506"
       inkscape:connector-curvature="0" />
  </g>
</svg>
